<svg width="56" height="56" viewBox="0 0 56 56" fill="none" xmlns="http://www.w3.org/2000/svg">
<path d="M35.8055 20.3028C35.8055 26.1033 31.1033 30.8055 25.3028 30.8055C19.5022 30.8055 14.8 26.1033 14.8 20.3028C14.8 14.5022 19.5022 9.8 25.3028 9.8C31.1033 9.8 35.8055 14.5022 35.8055 20.3028Z" fill="white" fill-opacity="0.2" stroke="#2F3438" stroke-width="1.6"/>
<path d="M23.7615 18.5321V35.1724C23.7615 36.3379 22.6197 37.1608 21.5141 36.7922L19.0349 35.9658C17.691 35.5179 16.2036 35.9081 15.2464 36.9523C14.5892 37.6692 14.7103 38.8061 15.5087 39.3615L19.5955 42.2045C19.8032 42.349 19.9916 42.5193 20.1562 42.7113L22.9943 46.0225C23.9704 47.1612 25.3953 47.8166 26.8951 47.8166H33.4373C35.5114 47.8166 37.382 46.5695 38.1797 44.655L40.8638 38.2132C41.5181 36.6428 40.933 34.8297 39.4841 33.938L33.0436 29.9746C32.3493 29.5474 31.55 29.3212 30.7348 29.3212H28.9859C28.6542 29.3212 28.3853 29.0522 28.3853 28.7205V18.5321C28.3853 17.2553 27.3502 16.2202 26.0734 16.2202C24.7966 16.2202 23.7615 17.2553 23.7615 18.5321Z" fill="white" stroke="#2F3438" stroke-width="1.6"/>
</svg>
